<svg version="1.1" id="Layer_1" xmlns="http://www.w3.org/2000/svg" xmlns:xlink="http://www.w3.org/1999/xlink" x="0px" y="0px"
	 width="100%" viewBox="0 0 224 224" enable-background="new 0 0 224 224" xml:space="preserve">
<path fill="#000000" opacity="1.000000" stroke="none" 
	d="
M52.976517,35.032238 
	C52.047520,33.583012 51.549976,31.992416 51.755310,30.282898 
	C52.207695,26.516556 51.905506,23.160429 47.611290,22.206442 
	C47.635124,20.066427 50.169266,19.155378 48.890667,17.213297 
	C46.931618,14.237664 48.605728,12.102129 51.097820,11.404303 
	C54.231590,10.526799 57.928688,10.103001 59.656235,14.204180 
	C62.238480,20.334414 67.020927,25.111383 69.903671,31.064957 
	C70.433289,32.158752 71.702438,33.318909 72.849213,33.623215 
	C83.316895,36.400944 90.954559,44.716450 101.183594,47.936249 
	C109.354004,50.508053 109.686150,58.290974 112.214378,64.816711 
	C106.349457,56.861271 97.122627,55.819988 88.998726,52.512348 
	C84.816422,50.809525 81.133919,47.879143 77.052589,45.398308 
	C76.180756,47.704029 77.876625,48.064278 78.995308,48.901535 
	C83.380325,52.183414 88.984856,53.375858 93.063744,57.163280 
	C94.243233,58.258488 95.017883,56.142509 96.243767,56.825283 
	C98.588997,58.131493 101.754784,58.530609 102.009613,62.418716 
	C97.925034,63.623398 93.462120,60.149998 89.843140,63.902149 
	C94.215012,62.920033 98.132149,63.960854 101.920662,65.970596 
	C104.983444,67.595345 105.662003,69.362686 102.357391,71.306900 
	C99.676445,72.884193 98.803856,75.157761 99.168541,78.045921 
	C100.953339,92.180840 101.723183,106.546799 107.084152,119.958023 
	C109.796684,126.743813 113.320198,133.205246 116.472511,139.815491 
	C118.084694,143.196152 121.750549,144.237152 124.287216,146.604446 
	C134.903183,156.511551 147.743057,162.846390 161.296387,167.496872 
	C166.983643,169.448334 173.061630,165.929993 179.074661,166.439377 
	C179.872360,166.506958 180.718445,166.092010 181.873779,167.265945 
	C175.870804,168.814590 172.489761,173.269714 168.606812,177.798767 
	C173.587784,177.551788 176.824661,172.908630 181.914413,174.274979 
	C182.695877,174.484741 184.254944,171.797836 185.763626,170.103271 
	C188.087128,172.968948 193.492538,170.009613 194.989014,175.618576 
	C196.001862,179.414856 195.865738,181.181366 191.540405,180.594864 
	C188.781555,180.220779 187.840424,181.217880 188.569885,184.175385 
	C192.565765,181.193710 196.794708,183.192902 200.859756,182.967056 
	C201.872452,187.227097 199.181000,189.400101 195.734253,191.390472 
	C200.675568,194.560318 204.692963,188.997299 209.053802,191.132767 
	C209.817001,192.770248 208.692017,193.665359 207.370148,193.983704 
	C203.070831,195.019089 199.109726,196.840775 194.395737,196.978134 
	C187.538757,197.177933 180.536942,198.167053 174.348251,201.894379 
	C168.605103,205.353378 161.992462,204.016342 155.798203,204.781998 
	C148.224777,205.718124 140.495895,204.527023 132.863129,205.687103 
	C131.294983,205.925446 129.506393,205.511703 127.962013,204.982437 
	C114.959389,200.526398 101.479553,198.606049 87.907188,196.945038 
	C80.559288,196.045792 74.182785,192.302185 69.459290,186.798767 
	C60.274799,176.097733 51.754436,164.829956 42.777145,153.946930 
	C33.224770,142.366776 28.406540,128.573395 23.840317,114.628189 
	C21.645870,107.926369 20.388323,101.265205 21.555191,94.030228 
	C22.353342,89.081429 19.623430,84.017998 20.138874,78.195557 
	C23.886530,82.176125 25.080397,86.798912 25.992029,91.171425 
	C30.220755,111.453880 38.247803,130.091537 49.344540,147.482834 
	C59.476543,163.362122 72.550911,175.863403 89.536224,184.528427 
	C102.854393,191.322662 117.052063,193.888046 131.516464,195.916428 
	C135.103378,196.419434 138.522385,196.100754 140.906113,192.335587 
	C137.096695,191.618866 133.229309,192.109024 129.397049,192.275742 
	C125.447144,192.447601 121.920013,191.411392 118.699875,189.174957 
	C115.527321,186.971588 111.926125,186.076126 108.165970,185.394501 
	C104.427666,184.716827 100.979668,182.938568 97.031166,182.743530 
	C94.749863,182.630844 96.154404,180.028107 95.598602,178.319763 
	C91.017548,182.278427 89.909302,175.485199 85.880898,175.787018 
	C84.803490,176.228683 86.481911,180.351685 83.068764,179.048279 
	C79.664246,177.748138 78.236183,175.226578 79.936264,171.512527 
	C72.975578,172.053970 69.093208,168.269684 69.426857,161.109253 
	C65.727654,165.492294 64.411919,161.482712 62.435066,159.747314 
	C60.737858,158.257416 61.322205,156.970795 63.625893,155.652496 
	C60.876820,155.165665 59.854103,153.723740 58.689785,151.734375 
	C54.357635,144.332413 48.464989,137.697876 45.073803,129.938065 
	C42.444691,123.922066 38.796009,117.982796 38.632893,110.822739 
	C38.543556,106.901215 38.639244,101.834946 32.251228,101.322853 
	C29.871754,101.132095 27.955994,94.039032 29.054073,90.675606 
	C29.408615,89.589630 30.020914,88.587807 30.517889,87.542053 
	C26.039070,85.621429 26.039070,85.621429 25.603207,80.862999 
	C27.427542,79.453224 29.806850,79.231438 32.097588,78.039375 
	C29.163263,77.810684 28.035908,76.002838 27.604433,72.761826 
	C26.341309,74.949333 25.535490,76.344864 24.508633,78.123199 
	C22.284332,74.679131 25.552359,72.982361 26.506416,71.099045 
	C27.795361,68.554642 29.871181,71.592339 31.878223,71.653175 
	C33.123295,70.058334 34.413601,68.405548 35.794296,66.636986 
	C30.934990,63.744453 28.110167,68.612328 23.839077,69.367928 
	C24.591671,65.800125 27.342255,63.822662 29.369797,61.537170 
	C31.356054,59.298218 35.696251,60.727642 37.246914,57.061573 
	C34.578491,54.753094 32.901497,59.238602 30.077812,57.726021 
	C30.847326,53.447643 36.819031,54.540569 38.214069,50.225754 
	C40.116009,44.114952 44.171246,39.537403 45.511986,33.797581 
	C45.532925,33.707932 45.305664,33.560307 45.483261,33.752464 
	C39.757206,37.670643 36.028172,42.612881 38.022011,50.026188 
	C29.468748,49.660622 27.227690,56.955135 23.288414,62.505859 
	C23.835140,58.039463 24.776962,54.050468 27.301758,50.580578 
	C28.363861,49.120903 29.220592,47.513405 30.206322,45.996258 
	C34.265945,39.748058 38.418732,33.550724 37.272530,25.483618 
	C37.167091,24.741493 37.806690,23.928211 39.201160,23.799234 
	C39.886253,25.855778 38.756599,28.821323 41.825813,30.243155 
	C43.986900,29.724640 45.841599,26.743511 48.955551,28.550854 
	C50.396801,30.339987 47.804260,34.604012 52.586731,35.242683 
	C51.469402,38.812935 53.896629,41.143757 54.473827,43.853722 
	C60.641453,43.693497 61.262356,44.418839 60.245174,50.310123 
	C62.071522,50.307129 63.994202,49.805069 63.737633,47.759117 
	C63.165302,43.195229 58.369068,42.593983 55.518505,40.230709 
	C56.202621,38.083611 57.354340,36.696972 59.281590,36.309422 
	C63.301537,35.501049 60.832600,41.701229 64.574486,41.359509 
	C62.121857,33.018452 61.950989,32.914700 53.954350,34.842831 
	C53.631927,34.920567 53.302616,34.969749 52.976517,35.032238 
M96.909882,134.530121 
	C96.740311,135.681213 96.437119,136.873535 97.970314,137.405518 
	C102.546501,138.993378 105.752838,142.137268 108.321548,146.159851 
	C108.993652,147.212341 110.050484,148.842453 112.407990,147.297638 
	C109.389450,143.103012 106.545853,138.848511 103.367653,134.860687 
	C101.738083,132.815979 99.010963,135.256699 97.017250,133.276901 
	C100.095840,129.528366 99.285866,125.836159 97.919189,121.449867 
	C95.298164,113.037781 91.260788,104.662361 92.517853,95.586174 
	C93.515862,88.380402 89.291847,82.070145 90.774567,75.342224 
	C82.173569,74.521133 84.051697,79.901695 84.579948,84.498138 
	C86.095947,84.657478 88.738541,83.989944 88.487061,86.656067 
	C87.985359,91.974915 93.239052,98.053360 85.993248,102.660484 
	C89.292740,105.023743 87.216599,109.108955 89.358994,111.508575 
	C91.385918,113.778862 92.193512,116.646309 93.972260,119.025322 
	C95.175026,120.633957 96.376938,124.325508 95.688377,124.929359 
	C91.088440,128.963501 95.835625,131.138245 96.909882,134.530121 
M144.619675,175.219452 
	C143.613663,176.316635 144.091873,177.109100 145.268616,177.439560 
	C148.409439,178.321533 147.260666,174.396790 150.331680,174.232269 
	C137.173309,167.790070 124.904694,162.127838 116.368973,151.052490 
	C115.315834,149.686020 113.833748,148.701889 112.264954,150.640747 
	C118.115067,163.482086 130.069260,172.077469 143.099289,172.914246 
	C144.051132,172.975372 145.103424,173.414978 144.619675,175.219452 
M146.588394,183.555267 
	C145.340820,178.348877 142.711838,182.271149 140.561462,183.117722 
	C140.029968,181.404297 141.857376,179.793304 139.345230,178.623810 
	C136.046616,177.088165 134.927521,179.658829 133.520401,180.894531 
	C130.905304,180.778091 131.366882,177.504242 129.057587,177.651169 
	C126.941681,180.480377 126.941681,180.480377 134.530136,185.246796 
	C135.710022,184.147446 135.016861,180.755936 138.528961,182.155991 
	C137.491486,186.109329 139.718246,186.916534 143.035034,186.424240 
	C144.037338,186.275467 144.900558,186.271347 145.902954,186.663071 
	C153.776123,189.739761 153.787460,189.710754 158.321579,182.657288 
	C159.753418,182.794937 160.004593,186.122879 162.181686,184.180252 
	C162.879807,183.557312 162.894333,182.494324 162.248245,181.937103 
	C160.541321,180.464905 157.897797,179.131866 156.489395,180.964478 
	C153.779465,184.490601 150.738846,184.649155 146.588394,183.555267 
M63.076939,96.033577 
	C66.914978,94.477608 67.020317,93.615570 63.938210,88.985184 
	C55.829090,92.292313 53.269123,94.180321 49.985077,99.437813 
	C51.407722,100.253288 50.992649,102.856102 53.840775,102.918716 
	C54.856236,98.324471 56.561729,94.274597 63.076939,96.033577 
M172.825470,185.028793 
	C176.904816,184.908188 181.051895,185.617477 185.041550,184.280045 
	C184.506027,179.845245 181.593246,178.565201 178.076294,177.820358 
	C177.217392,179.545441 179.373642,181.542099 176.959305,182.531158 
	C172.393082,180.990463 171.810486,181.083908 167.661682,184.085114 
	C168.958664,185.186050 170.509338,184.863739 172.825470,185.028793 
M110.152321,174.850311 
	C109.410515,175.480240 108.454796,176.010147 109.127174,177.507446 
	C112.164635,178.107559 114.293037,176.335709 115.286514,173.906128 
	C116.792580,170.222946 113.544510,168.295471 111.295097,165.681076 
	C109.519592,167.422119 107.563568,167.904404 105.408127,165.713516 
	C104.692932,171.301788 109.289940,169.093491 111.082138,170.593414 
	C111.892586,171.271683 113.496490,171.137772 113.547539,172.626312 
	C113.615364,174.603928 111.943024,174.353897 110.152321,174.850311 
M77.047729,69.858215 
	C77.430420,66.287170 74.033829,66.576149 73.399460,67.694901 
	C70.824326,72.236343 65.833832,72.285187 61.392857,74.613533 
	C66.522942,75.036606 74.567383,72.627480 77.047729,69.858215 
M180.479218,193.229797 
	C178.879211,193.580276 176.821625,192.354401 175.697037,194.548676 
	C179.321259,196.903580 187.620300,195.119949 192.742599,190.819778 
	C188.410889,189.799438 185.091202,192.683319 180.479218,193.229797 
M91.726654,154.476746 
	C90.446175,155.701233 88.956070,156.809708 89.247215,159.348206 
	C92.838829,158.502640 96.743004,160.317078 101.054924,156.929993 
	C97.069939,156.908768 95.464241,153.518005 91.726654,154.476746 
M164.675247,194.500107 
	C162.284363,191.036057 159.507904,193.672882 156.973907,194.179367 
	C156.096649,194.354706 155.936218,195.967545 156.678650,196.769455 
	C158.304321,198.525421 160.441223,197.243622 162.340881,197.442261 
	C164.040070,197.619904 165.444016,197.369690 164.675247,194.500107 
M58.115295,105.554039 
	C53.223167,105.652779 54.331482,109.685837 54.482857,112.121727 
	C54.729671,116.093414 58.373585,114.330757 60.974422,114.821655 
	C55.313850,112.785583 59.077572,108.742088 58.115295,105.554039 
M84.666412,57.581676 
	C82.152580,54.953270 79.277985,54.286095 75.927109,55.735046 
	C76.841339,61.152309 78.909584,61.674721 84.666412,57.581676 
M62.138512,121.428818 
	C63.892765,123.084770 64.540718,125.933990 67.193527,126.733818 
	C68.739273,123.823563 65.244576,123.202148 65.397049,120.734901 
	C65.725693,115.417122 61.176910,119.851135 59.213005,118.193649 
	C58.011894,117.179947 57.105305,118.830055 57.501198,120.493317 
	C58.931831,120.482162 60.438976,119.677307 62.138512,121.428818 
M164.540802,178.448685 
	C161.585709,176.117661 157.803619,176.077072 154.417648,175.233353 
	C151.345856,174.467926 150.614502,176.611343 152.578125,180.138626 
	C154.030762,176.672653 155.938766,177.240753 158.343536,178.293945 
	C160.130997,179.076767 162.194244,180.447525 164.540802,178.448685 
M67.268967,110.375854 
	C69.688087,111.275879 69.378578,109.181290 69.937477,107.982712 
	C70.877602,105.966591 69.748619,104.848068 68.234734,103.899681 
	C67.318512,103.325729 66.216087,103.093925 65.554298,104.075798 
	C64.620453,105.461327 63.782974,107.020164 65.501801,108.525475 
	C66.000244,108.962013 66.454559,109.448929 67.268967,110.375854 
M40.954544,66.911041 
	C42.093235,69.576698 40.616592,70.600456 38.137089,70.683846 
	C39.379845,73.811310 41.901146,73.912727 44.367836,74.881599 
	C43.764088,72.010063 43.004154,69.691849 43.228275,67.145065 
	C43.309822,66.218376 42.510273,63.800320 40.954544,66.911041 
M150.332397,196.530609 
	C151.975464,196.027832 152.961304,195.261810 150.761505,194.206665 
	C147.210693,192.503540 144.218781,193.461685 141.514236,196.570969 
	C144.416321,197.227249 147.008148,196.876419 150.332397,196.530609 
M82.964798,132.779007 
	C84.658974,131.942078 83.900200,130.919647 83.043762,130.107849 
	C80.876373,128.053452 78.384315,126.687103 75.094307,127.130936 
	C78.764023,127.620995 77.557899,133.932465 82.964798,132.779007 
M49.316769,62.818508 
	C46.826599,64.347519 47.945328,67.053207 48.951950,67.911301 
	C51.653748,70.214478 52.911091,66.414650 55.139328,66.137466 
	C54.048859,63.076725 50.520885,66.091492 49.316769,62.818508 
M88.864983,67.365761 
	C83.798058,63.528522 83.067009,63.641693 82.249733,68.449203 
	C84.026169,69.309258 86.069321,68.406982 87.929375,69.407738 
	C89.139229,70.058662 89.528038,68.913612 88.864983,67.365761 
M74.491028,154.061508 
	C77.374176,154.851074 79.029747,153.670868 80.270737,150.242111 
	C76.862579,150.896896 74.156090,151.416870 71.496933,151.927750 
	C71.505440,154.121063 72.247772,154.824203 74.491028,154.061508 
M63.782063,58.649487 
	C61.830044,59.871616 59.878025,61.093742 57.926006,62.315868 
	C60.974380,61.177776 64.295509,62.498341 67.884041,60.852051 
	C66.100761,60.084484 68.844925,55.414848 63.782063,58.649487 
M37.303223,93.883926 
	C37.521973,95.612404 36.476345,97.784241 39.136929,99.084091 
	C39.827099,97.323494 40.395908,95.832375 40.996384,94.354111 
	C41.432457,93.280563 41.206581,92.418533 40.185116,91.870796 
	C38.697021,91.072830 37.685543,91.432098 37.303223,93.883926 
M88.952324,150.819366 
	C87.683151,147.218597 85.212547,146.907455 81.074348,147.737839 
	C83.983047,149.879059 85.785797,151.588974 88.952324,150.819366 
M70.807755,54.194782 
	C67.693832,53.103249 71.207664,48.609779 66.699036,47.279758 
	C68.733643,50.837494 65.473518,56.356411 72.455170,56.457775 
	C71.891914,55.729027 71.491714,55.211235 70.807755,54.194782 
M44.265953,54.289837 
	C43.396759,54.762283 42.003517,54.749573 42.256115,56.771206 
	C45.925198,55.591057 49.371616,54.482521 52.818039,53.373989 
	C52.700645,53.004860 52.583252,52.635735 52.465858,52.266605 
	C49.958611,52.883263 47.451363,53.499920 44.265953,54.289837 
M45.918972,108.558266 
	C46.478119,110.094093 47.037266,111.629921 47.643417,113.294861 
	C49.664310,111.953163 50.167057,110.232857 49.441742,108.461334 
	C48.808765,106.915314 47.434811,107.107986 45.918972,108.558266 
M38.973801,85.873505 
	C40.361115,87.077103 41.371475,90.082466 43.887051,86.700371 
	C42.776142,85.694931 41.828819,84.461479 40.578613,83.803696 
	C39.102032,83.026787 37.355099,82.737320 38.973801,85.873505 
M68.476364,143.659531 
	C67.144623,142.583130 65.812889,141.506729 64.831329,140.713364 
	C65.602730,144.263916 65.602730,144.263916 69.637970,146.275314 
	C70.052025,145.302551 69.178078,144.822083 68.476364,143.659531 
M74.602974,142.153946 
	C74.870003,140.091782 73.281250,138.262680 74.125908,136.127975 
	C70.907967,139.956512 70.916603,140.075531 74.602974,142.153946 
z"/>
<path fill="#000000" opacity="1.000000" stroke="none" 
	d="
M214.202576,189.092072 
	C215.782349,187.957336 217.071915,186.960861 219.350266,185.200333 
	C219.104324,188.845428 217.874954,190.772766 215.500473,192.117905 
	C214.549194,192.656799 213.483963,192.723083 212.884354,191.669449 
	C212.260223,190.572723 213.010971,189.813034 214.202576,189.092072 
z"/>
</svg>