<svg version="1.1" id="Layer_1" xmlns="http://www.w3.org/2000/svg" xmlns:xlink="http://www.w3.org/1999/xlink" x="0px" y="0px"
	 width="100%" viewBox="0 0 736 496" enable-background="new 0 0 736 496" xml:space="preserve">
<path fill="#000000" opacity="1.000000" stroke="none" 
	d="
M372.769501,307.353333 
	C358.756195,307.168732 360.040466,309.101013 359.958740,295.101379 
	C359.905273,285.942810 359.809357,276.780304 360.021423,267.626251 
	C360.115906,263.547211 358.687836,261.966827 354.558197,262.033264 
	C344.236603,262.199371 333.908447,261.954071 323.586761,262.116943 
	C319.909882,262.174927 318.554413,260.887299 318.618591,257.198975 
	C318.877838,242.301971 316.728973,244.941544 330.892212,244.699722 
	C338.550323,244.568970 346.224152,244.379501 353.867737,244.726517 
	C358.900391,244.954987 360.115997,242.852325 360.020142,238.269394 
	C359.790405,227.283585 360.124115,216.285568 359.867859,205.300949 
	C359.754211,200.430725 361.600616,198.898834 366.318085,199.062851 
	C377.940247,199.466904 377.969391,199.315552 377.884705,211.020126 
	C377.820862,219.841873 377.684601,228.663086 377.582794,237.484558 
	C377.508209,243.946182 378.147095,244.630966 384.547760,244.653412 
	C394.539185,244.688446 404.531799,244.764038 414.521759,244.644409 
	C417.841034,244.604660 419.413544,245.625076 419.344513,249.182144 
	C419.048615,264.431580 421.275024,261.873016 406.885620,262.074066 
	C399.060974,262.183411 391.229645,262.168243 383.407623,261.966461 
	C379.339233,261.861450 377.786224,263.403168 377.851288,267.518036 
	C378.030334,278.838745 377.924408,290.164124 377.910126,301.487640 
	C377.906158,304.651550 377.729065,307.735657 372.769501,307.353333 
z"/>
<path fill="#000000" opacity="1.000000" stroke="none" 
	d="
M282.797974,352.999451 
	C282.789001,347.335571 282.621002,342.165161 282.824768,337.009430 
	C282.974243,333.227386 281.364349,332.116302 277.778778,332.186096 
	C268.953094,332.357880 260.118500,332.094543 251.294037,332.294586 
	C247.285995,332.385468 245.623169,331.135406 245.650452,326.903534 
	C245.703506,318.672272 245.504257,318.669525 253.705200,318.663483 
	C261.534790,318.657745 269.372101,318.445587 277.191010,318.732666 
	C281.675598,318.897369 282.969757,317.151550 282.868652,312.892548 
	C282.639282,303.235901 282.972992,293.565338 282.711731,283.910309 
	C282.590881,279.443848 283.899536,277.593811 288.624054,277.730011 
	C299.658112,278.048187 298.278839,277.073212 298.336578,287.417297 
	C298.384003,295.912994 298.536926,304.414703 298.278198,312.902679 
	C298.148102,317.170502 299.404266,318.878662 303.903961,318.730957 
	C313.056885,318.430450 322.228943,318.744751 331.385742,318.513336 
	C334.711273,318.429321 335.965210,319.687347 335.895599,322.794342 
	C335.862030,324.292542 335.847351,325.794983 335.918671,327.290955 
	C336.088928,330.862671 334.533875,332.362579 330.863770,332.294647 
	C322.204163,332.134338 313.539703,332.223938 304.877258,332.236572 
	C298.456940,332.245911 298.362579,332.335266 298.351868,338.585205 
	C298.335327,348.247223 298.226227,357.911621 298.411163,367.570160 
	C298.483978,371.372437 297.477234,372.975647 293.318451,372.696991 
	C282.790558,371.991577 282.780945,372.150146 282.798767,361.495544 
	C282.803223,358.830109 282.798737,356.164673 282.797974,352.999451 
z"/>
<path fill="#000000" opacity="1.000000" stroke="none" 
	d="
M435.518372,318.617035 
	C439.281708,318.773499 439.667175,316.686096 439.652710,314.051666 
	C439.595978,303.729675 439.753632,293.404816 439.559204,283.086151 
	C439.486938,279.250000 440.703003,277.814117 444.669159,277.785034 
	C455.092529,277.708557 455.086853,277.548676 455.071625,287.886719 
	C455.059601,296.044464 455.349976,304.216431 454.951263,312.354858 
	C454.697205,317.540405 456.580139,318.961029 461.538544,318.749359 
	C470.013916,318.387543 478.519440,318.794952 487.005432,318.591644 
	C490.827820,318.500031 492.708740,319.690521 492.219482,323.692352 
	C492.139343,324.347870 492.221527,325.022766 492.221619,325.688690 
	C492.222595,332.068756 492.111206,332.214783 485.915375,332.233734 
	C477.424561,332.259674 468.928070,332.413574 460.445038,332.153046 
	C456.225250,332.023468 454.948334,333.647308 455.021118,337.673401 
	C455.201660,347.659210 454.975861,357.651886 455.100006,367.639465 
	C455.144043,371.183014 454.161774,372.613495 450.250641,372.500610 
	C439.634766,372.194244 439.630249,372.383209 439.630432,361.815125 
	C439.630554,353.657166 439.467743,345.494781 439.695068,337.343201 
	C439.806335,333.352936 438.267426,332.106079 434.432434,332.185822 
	C425.445953,332.372681 416.449188,332.093018 407.464203,332.312927 
	C403.380615,332.412872 401.859619,331.021790 401.895050,326.872101 
	C401.965149,318.660004 401.782288,318.649597 410.098694,318.636993 
	C418.423157,318.624390 426.747620,318.631958 435.518372,318.617035 
z"/>
<path fill="#000000" opacity="1.000000" stroke="none" 
	d="
M403.556274,186.738510 
	C400.946503,183.157959 402.034332,179.469284 402.348663,175.925201 
	C402.571747,173.409988 404.865356,173.717010 406.666351,173.712067 
	C415.323730,173.688309 423.981171,173.698425 432.638611,173.692795 
	C439.638580,173.688232 439.648468,173.685867 439.652344,166.908218 
	C439.657867,157.251846 439.787354,147.592407 439.574921,137.940628 
	C439.489014,134.037750 440.836700,132.699936 444.743469,132.678604 
	C455.078400,132.622162 455.065094,132.474487 455.041138,142.840958 
	C455.021149,151.498184 455.150665,160.157791 454.979156,168.811691 
	C454.906342,172.486206 456.241608,173.816589 459.933136,173.740463 
	C468.753174,173.558578 477.589264,173.940369 486.399841,173.600998 
	C491.192749,173.416382 492.424316,175.300140 492.285919,179.710541 
	C492.062531,186.830978 492.084656,187.127731 486.227570,187.167480 
	C477.570526,187.226242 468.909332,187.329681 460.257019,187.120377 
	C456.353363,187.025955 454.945862,188.413589 455.015656,192.313660 
	C455.188354,201.966614 454.889282,211.628952 455.116272,221.279602 
	C455.219238,225.657700 454.101166,227.590439 449.265747,227.416992 
	C438.319366,227.024323 439.767670,228.212112 439.675537,217.652359 
	C439.605774,209.661438 439.652313,201.669510 439.643646,193.678040 
	C439.636658,187.202850 439.634247,187.223236 432.917755,187.178482 
	C423.267334,187.114182 413.617157,187.016632 403.556274,186.738510 
z"/>
<path fill="#000000" opacity="1.000000" stroke="none" 
	d="
M255.046982,173.611115 
	C263.198456,173.510529 270.856689,173.292572 278.512360,173.360626 
	C282.469330,173.395798 283.738953,171.649658 283.678040,167.886719 
	C283.510956,157.562668 283.685242,147.232742 283.485291,136.909760 
	C283.422455,133.666534 284.346283,132.424789 287.712799,132.566666 
	C299.034515,133.043793 298.182465,131.238388 298.182892,143.138046 
	C298.183197,151.132858 298.427521,159.136963 298.109436,167.118866 
	C297.927521,171.683640 299.689301,173.588058 304.060425,173.549896 
	C312.217529,173.478699 320.381805,173.624130 328.529816,173.321426 
	C335.001923,173.080933 335.359741,173.169693 335.464783,179.541153 
	C335.589569,187.110443 335.589661,187.141113 328.088318,187.159927 
	C320.260315,187.179535 312.423431,187.348511 304.607361,187.032684 
	C299.894318,186.842255 298.005920,188.371231 298.131714,193.246231 
	C298.380768,202.899765 298.070831,212.566589 298.218292,222.224472 
	C298.277618,226.107376 296.812225,227.451828 292.932220,227.462830 
	C283.638977,227.489182 283.628693,227.648300 283.606598,218.614441 
	C283.586182,210.286499 283.463135,201.955780 283.637085,193.631546 
	C283.734711,188.960693 281.914886,186.988144 277.151978,187.104614 
	C268.829437,187.308121 260.498016,187.147873 252.170319,187.141129 
	C245.906982,187.136047 245.737564,186.952820 245.727737,180.145599 
	C245.718536,173.771530 245.824295,173.661575 252.054474,173.613556 
	C252.887161,173.607147 253.719940,173.612427 255.046982,173.611115 
z"/>
<path fill="#000000" opacity="1.000000" stroke="none" 
	d="
M495.717834,260.910034 
	C495.469421,268.461243 495.260803,275.625519 495.387573,282.783875 
	C495.449585,286.284973 494.107178,287.692108 490.696320,287.384430 
	C489.539459,287.280060 488.355316,287.276520 487.200195,287.392151 
	C483.387787,287.773865 481.774658,286.348450 481.967010,282.292725 
	C482.250946,276.307465 481.928864,270.296112 482.047394,264.299438 
	C482.117188,260.769226 480.895264,259.103516 477.109924,259.256500 
	C471.786163,259.471649 466.441956,259.159210 461.115570,259.339478 
	C456.874878,259.483002 456.673401,256.890198 456.785431,253.802048 
	C456.897156,250.721649 455.988007,247.086838 461.034271,247.106247 
	C466.366455,247.126770 471.703033,246.911072 477.029968,247.065475 
	C480.719940,247.172440 482.076874,245.647110 482.005463,242.034348 
	C481.883636,235.872070 482.168060,229.702148 482.066772,223.538986 
	C481.963379,217.247940 486.595520,219.260544 489.865631,218.903168 
	C493.387421,218.518295 495.593536,219.437439 495.404358,223.719574 
	C495.147156,229.540833 495.644867,235.402466 495.252991,241.208588 
	C494.926636,246.043777 496.936615,247.349136 501.344208,247.079544 
	C505.660522,246.815521 510.013062,247.187012 514.337280,246.996552 
	C518.594788,246.809036 521.429138,247.461456 521.066040,252.859924 
	C520.654724,258.974548 520.639587,259.317169 514.528992,259.322998 
	C509.862823,259.327423 505.196320,259.282959 500.530670,259.329681 
	C498.913300,259.345856 497.140198,258.965729 495.717834,260.910034 
z"/>
<path fill="#000000" opacity="1.000000" stroke="none" 
	d="
M367.132324,334.971802 
	C375.984711,334.948578 375.986847,334.948578 376.003754,343.460175 
	C376.013672,348.455078 376.185944,353.457550 375.965729,358.442474 
	C375.797272,362.256256 377.048462,363.925659 381.075531,363.727142 
	C386.224243,363.473389 391.408569,363.906128 396.552979,363.612305 
	C400.957336,363.360718 401.442749,365.729187 401.311859,369.169617 
	C401.190094,372.370392 401.821960,375.697998 396.743225,375.430298 
	C391.762054,375.167725 386.734375,375.664764 381.767426,375.291626 
	C376.929626,374.928162 375.693939,376.980652 375.953033,381.410065 
	C376.263702,386.720215 376.051178,392.061829 376.040131,397.389771 
	C376.026855,403.786621 375.802582,403.678802 369.188751,404.089203 
	C364.210907,404.398071 362.230743,402.916260 362.587860,397.721710 
	C362.986633,391.921844 362.512665,386.067169 362.725372,380.247559 
	C362.862549,376.493927 361.335541,375.242188 357.727509,375.338684 
	C351.260010,375.511566 344.784546,375.387451 338.170197,375.387451 
	C336.937408,371.428802 337.798981,367.859436 337.594360,363.668701 
	C344.444183,363.668701 350.897644,363.470734 357.331604,363.739105 
	C361.537170,363.914551 362.895752,362.295593 362.737488,358.221893 
	C362.492096,351.904663 362.756256,345.569275 362.656677,339.243958 
	C362.611206,336.356049 363.625458,334.790924 367.132324,334.971802 
z"/>
<path fill="#000000" opacity="1.000000" stroke="none" 
	d="
M241.838593,270.023743 
	C241.656403,256.477295 243.478165,258.377350 230.339584,258.282959 
	C227.675507,258.263824 224.982040,258.039124 222.353104,258.345978 
	C217.369965,258.927521 216.415237,256.364410 216.658051,252.131210 
	C216.814255,249.407791 217.673965,248.299362 220.529678,248.345840 
	C226.347885,248.440582 232.174133,248.073669 237.991226,248.189636 
	C240.855576,248.246735 241.865082,247.208679 241.823868,244.445068 
	C241.736984,238.618546 241.992706,232.782959 241.772125,226.963806 
	C241.627029,223.136169 242.508026,221.051254 246.893234,220.999191 
	C251.145416,220.948715 252.436600,222.688904 252.261703,226.687485 
	C252.029099,232.005875 252.415619,237.353271 252.134842,242.667007 
	C251.911362,246.896454 253.668716,248.259354 257.671692,248.109207 
	C262.658752,247.922150 267.660614,248.171707 272.655212,248.128555 
	C276.029083,248.099396 277.333527,249.576920 277.307098,252.994949 
	C277.281555,256.303986 276.177917,258.025085 272.745056,258.020966 
	C267.583344,258.014740 262.414032,258.264801 257.262207,258.055237 
	C253.273102,257.892975 251.985809,259.545746 252.137543,263.363800 
	C252.355560,268.850159 252.014404,274.359222 252.248718,279.844208 
	C252.422699,283.916168 250.997391,285.441132 246.800278,285.400665 
	C242.754120,285.361694 241.490112,283.803192 241.778412,280.004211 
	C242.017151,276.858185 241.838516,273.680481 241.838593,270.023743 
z"/>
<path fill="#000000" opacity="1.000000" stroke="none" 
	d="
M363.938141,124.838898 
	C363.943726,119.036324 364.013611,113.711441 363.934448,108.388779 
	C363.874969,104.390221 366.293182,103.884880 369.507446,103.882759 
	C372.792694,103.880592 374.429382,105.007408 374.322815,108.547676 
	C374.157654,114.033104 374.276184,119.527191 374.281281,125.017601 
	C374.287476,131.703110 374.290558,131.703064 381.237091,131.716446 
	C385.895599,131.725418 390.556793,131.834198 395.211792,131.710861 
	C398.703735,131.618332 399.310272,133.567093 399.302521,136.467056 
	C399.294891,139.330139 398.780426,141.344559 395.256897,141.269196 
	C390.101959,141.158936 384.933777,141.456039 379.787415,141.222839 
	C375.747406,141.039749 374.031158,142.382660 374.226288,146.619415 
	C374.493958,152.430069 374.110657,158.269638 374.342163,164.083420 
	C374.499268,168.029526 372.979095,169.285660 369.107391,169.276810 
	C365.099396,169.267624 363.828796,167.577316 363.911774,163.864365 
	C364.045624,157.877777 363.845673,151.883530 363.991882,145.897507 
	C364.075653,142.464645 362.726501,141.101456 359.274597,141.236740 
	C354.623383,141.419067 349.958374,141.213181 345.301056,141.287338 
	C341.793762,141.343170 338.719543,141.571274 338.772797,136.362717 
	C338.828033,130.962387 342.272064,131.726517 345.555603,131.713699 
	C349.548584,131.698105 353.571686,131.401810 357.527283,131.786713 
	C362.630341,132.283310 364.677338,130.326889 363.938141,124.838898 
z"/>
</svg>